<svg width="31" height="94" viewBox="0 0 31 94" fill="none" xmlns="http://www.w3.org/2000/svg">
<path d="M0.515625 79.4219C0.515625 83.4323 1.86979 86.7917 4.57812 89.5C7.28646 92.2083 10.9583 93.5625 15.5938 93.5625C20.1771 93.5625 23.8229 92.2344 26.5312 89.5781C29.2917 86.8698 30.6719 83.4844 30.6719 79.4219C30.6719 75.3594 29.3177 71.9479 26.6094 69.1875C23.9531 66.4271 20.2812 65.0469 15.5938 65.0469C10.8542 65.0469 7.15625 66.4531 4.5 69.2656C1.84375 72.026 0.515625 75.4115 0.515625 79.4219ZM0.515625 14.8906C0.515625 18.901 1.86979 22.2604 4.57812 24.9688C7.28646 27.6771 10.9583 29.0312 15.5938 29.0312C20.1771 29.0312 23.8229 27.7031 26.5312 25.0469C29.2917 22.3385 30.6719 18.9531 30.6719 14.8906C30.6719 10.8281 29.3177 7.41667 26.6094 4.65625C23.9531 1.89583 20.2812 0.515625 15.5938 0.515625C10.8542 0.515625 7.15625 1.92188 4.5 4.73438C1.84375 7.49479 0.515625 10.8802 0.515625 14.8906Z" fill="#00875F"/>
</svg>
